#!OML:ASF H:\ManfredObstacles\Project 1\Capture day 2\Session 1\male.ASF
:FULLY-SPECIFIED
:DEGREES
346
root -0.291183 8.44165 -1.95868 -124.499 2.14201 182.773
lowerback 23.8382 -0.209036 -1.6287
upperback 12.7623 2.02332 3.28298
thorax 0.633811 1.68343 4.0181
lowerneck -25.4141 0.0360542 0.444218
upperneck 11.2416 0.0722733 -0.487539
head 7.54107 0.033928 -0.220933
rclavicle -1.69464e-014 6.2027e-015
rhumerus -5.92553 1.8745 -68.3972
rradius 63.367
rwrist 34.0746
rhand -46.3692 2.19368
rfingers 7.12502
rthumb -19.1008 -26.8884
lclavicle -1.69464e-014 6.2027e-015
lhumerus 47.3367 -3.83327 69.1211
lradius 44.1303
lwrist -42.4509
lhand -41.3387 21.1117
lfingers 7.12502
lthumb -14.258 50.6023
rfemur -83.8781 -27.1999 11.8758
rtibia 141.367
rfoot -30.8454 -11.962
rtoes -32.7252
lfemur -39.4241 -15.263 -25.7868
ltibia 97.8377
lfoot 0.997972 33.3311
ltoes -20.4019
347
root -0.285427 8.42222 -2.03772 -124.907 1.81229 182.238
lowerback 23.6663 -0.411631 -1.52918
upperback 12.9108 1.83214 3.33352
thorax 0.898237 1.60348 4.06926
lowerneck -25.3542 -0.0183874 0.504315
upperneck 11.2754 -0.0103603 -0.558484
head 7.54271 -0.0107835 -0.265505
rclavicle -1.2424e-014 -9.79946e-015
rhumerus -6.17616 1.30264 -68.323
rradius 65.4459
rwrist 34.0304
rhand -47.3094 2.43151
rfingers 7.12502
rthumb -20.0047 -26.5587
lclavicle -1.2424e-014 -9.79946e-015
lhumerus 47.0977 -4.19705 69.4688
lradius 43.6722
lwrist -42.7398
lhand -41.636 21.2807
lfingers 7.12502
lthumb -14.5444 50.7508
rfemur -84.2798 -28.164 11.922
rtibia 141.914
rfoot -31.2071 -11.7536
rtoes -32.8111
lfemur -38.2231 -15.9929 -26.081
ltibia 96.9924
lfoot 1.32491 33.3975
ltoes -20.477
348
root -0.278364 8.40179 -2.11686 -125.291 1.46142 181.711
lowerback 23.4824 -0.632099 -1.41445
upperback 13.0479 1.61628 3.38349
thorax 1.15799 1.51124 4.11522
lowerneck -25.2983 -0.0577319 0.55276
upperneck 11.3162 -0.0760618 -0.589311
head 7.54731 -0.0438154 -0.292474
rclavicle 9.44227e-015 2.33044e-014
rhumerus -6.18427 0.893586 -68.2181
rradius 67.4896
rwrist 33.9763
rhand -48.1383 2.44644
rfingers 7.12502
rthumb -20.8013 -26.4585
lclavicle 9.44227e-015 2.33044e-014
lhumerus 46.8188 -4.51934 69.7829
lradius 43.2449
lwrist -42.9881
lhand -41.9374 21.4462
lfingers 7.12502
lthumb -14.8349 50.8951
rfemur -84.5713 -29.069 11.9237
rtibia 142.389
rfoot -31.5563 -11.5809
rtoes -32.9407
lfemur -37.0424 -16.7123 -26.3458
ltibia 96.1357
lfoot 1.66801 33.4531
ltoes -20.5772
349
root -0.269437 8.38097 -2.19667 -125.651 1.11506 181.226
lowerback 23.2992 -0.849872 -1.29315
upperback 13.171 1.39956 3.42405
thorax 1.40198 1.4184 4.14543
lowerneck -25.2464 -0.0860046 0.606672
upperneck 11.3543 -0.133052 -0.595174
head 7.55163 -0.0697604 -0.310741
rclavicle 1.21259e-014 8.4732e-015
rhumerus -5.95582 0.572378 -68.0984
rradius 69.4577
rwrist 33.9427
rhand -48.8084 2.41855
rfingers 7.12502
rthumb -21.445 -26.4145
lclavicle 1.21259e-014 8.4732e-015
lhumerus 46.4968 -4.81708 70.0674
lradius 42.8497
lwrist -43.2129
lhand -42.2668 21.6433
lfingers 7.12502
lthumb -15.1522 51.0686
rfemur -84.7544 -29.7585 11.883
rtibia 142.782
rfoot -31.8499 -11.4912
rtoes -33.1123
lfemur -35.8748 -17.3709 -26.5763
ltibia 95.2637
lfoot 1.98353 33.4989
ltoes -20.6743
350
root -0.258238 8.35917 -2.27666 -125.955 0.766114 180.773
lowerback 23.0792 -1.05677 -1.18325
upperback 13.2703 1.18454 3.47496
thorax 1.63676 1.32292 4.19123
lowerneck -25.1883 -0.111136 0.649278
upperneck 11.3885 -0.186072 -0.578132
head 7.55369 -0.0919272 -0.318955
rclavicle 2.40529e-014 -1.63997e-015
rhumerus -5.49213 0.303619 -67.9395
rradius 71.3071
rwrist 33.9766
rhand -49.2179 2.33095
rfingers 7.12502
rthumb -21.8383 -26.4568
lclavicle 2.40529e-014 -1.63997e-015
lhumerus 46.1168 -5.08489 70.3722
lradius 42.49
lwrist -43.4388
lhand -42.618 21.8753
lfingers 7.12502
lthumb -15.4904 51.2748
rfemur -84.8801 -30.2716 11.8243
rtibia 143.103
rfoot -32.1009 -11.4793
rtoes -33.3192
lfemur -34.7665 -17.9809 -26.7563
ltibia 94.3835
lfoot 2.27051 33.5195
ltoes -20.7594
351
root -0.244533 8.33699 -2.35776 -126.201 0.42132 180.36
lowerback 22.8248 -1.25663 -1.07375
upperback 13.3472 0.967344 3.51771
thorax 1.86333 1.22396 4.22682
lowerneck -25.1475 -0.125174 0.709848
upperneck 11.4269 -0.232567 -0.547381
head 7.55987 -0.108628 -0.324571
rclavicle -1.47101e-014 -3.20105e-014
rhumerus -4.78433 0.0695031 -67.7781
rradius 73.0305
rwrist 34.0143
rhand -49.4187 2.29146
rfingers 7.12502
rthumb -22.0311 -26.4737
lclavicle -1.47101e-014 -3.20105e-014
lhumerus 45.6973 -5.30895 70.6842
lradius 42.1437
lwrist -43.694
lhand -42.9826 22.1341
lfingers 7.12502
lthumb -15.8416 51.506
rfemur -84.9518 -30.5552 11.7481
rtibia 143.347
rfoot -32.2936 -11.5009
rtoes -33.5336
lfemur -33.7204 -18.5269 -26.8786
ltibia 93.4906
lfoot 2.47759 33.5103
ltoes -20.8033
352
root -0.227806 8.31559 -2.44173 -126.457 0.071111 179.981
lowerback 22.6188 -1.44662 -0.971794
upperback 13.4143 0.760829 3.55881
thorax 2.05479 1.13057 4.26041
lowerneck -25.107 -0.133359 0.798139
upperneck 11.4617 -0.280797 -0.514225
head 7.56481 -0.124524 -0.334009
rclavicle 1.39149e-014 -2.59849e-014
rhumerus -3.85183 -0.151039 -67.6009
rradius 74.5884
rwrist 34.1002
rhand -49.4221 2.22572
rfingers 7.12502
rthumb -22.0343 -26.5391
lclavicle 1.39149e-014 -2.59849e-014
lhumerus 45.2467 -5.51016 71.0085
lradius 41.8057
lwrist -43.9639
lhand -43.3646 22.406
lfingers 7.12502
lthumb -16.2095 51.7483
rfemur -84.8229 -30.5808 11.6137
rtibia 143.496
rfoot -32.4282 -11.5524
rtoes -33.6543
lfemur -32.6339 -19.0093 -26.958
ltibia 92.5847
lfoot 2.57219 33.4947
ltoes -20.7871
353
root -0.207983 8.29435 -2.52754 -126.663 -0.247999 179.665
lowerback 22.3894 1.71946 0.462637
upperback 13.2177 -0.563792 4.17828
thorax 2.04581 -1.45777 4.30732
lowerneck -25.0678 -0.123392 0.944708
upperneck 11.506 -0.318246 -0.515499
head 7.57307 -0.136178 -0.362899
rclavicle 3.18055e-015 -2.08413e-015
rhumerus -2.69997 -0.341025 -67.4029
rradius 75.9729
rwrist 34.1574
rhand -49.2829 2.18769
rfingers 7.12502
rthumb -21.9007 -26.5928
lclavicle 3.18055e-015 -2.08413e-015
lhumerus 44.7576 -5.6778 71.3529
lradius 41.4721
lwrist -44.2473
lhand -43.7582 22.67
lfingers 7.12502
lthumb -16.5884 51.9811
rfemur -84.6407 -30.252 11.4602
rtibia 143.569
rfoot -32.4548 -11.6494
rtoes -33.7095
lfemur -31.5924 -19.3946 -26.9857
ltibia 91.6671
lfoot 2.59863 33.4687
ltoes -20.7255
